# xmcd
#
# Track frame offsets: 
#        150
#        15369
#        31904
#        44197
#        53575
#        71086
#        90031
#        103770
#        120399
#        137169
#
# Disc length: 2044 seconds
#
# Revision: 4
# Processed by: cddbd v1.5.2PL0 Copyright (c) Steve Scherf et al.
# Submitted via: ExactAudioCopy v1.3
#
DISCID=7a07fa0a
DTITLE=Pam Tillis - Super Hits Collection
DYEAR=1994
DGENRE=Country
TTITLE0=Maybe It Was Memphis
TTITLE1=One of Those Things
TTITLE2=I Thought I'd About Had It With Love
TTITLE3=There Goes My Love
TTITLE4=Sometimes a Stranger Will Do
TTITLE5=Those Memories of You
TTITLE6=I Wish She Wouldn't Treat You That Way
TTITLE7=Tennessee Nights
TTITLE8=Five Minutes
TTITLE9=Goodbye Highway
EXTD=
EXTT0=
EXTT1=
EXTT2=
EXTT3=
EXTT4=
EXTT5=
EXTT6=
EXTT7=
EXTT8=
EXTT9=
PLAYORDER=
